PathFileType	4	(X/Y/Z)	1_1_24_p0_0-541.trc
DataRate	CameraRate	NumFrames	NumMarkers	Units	OrigDataRate	OrigDataStartFrame	OrigNumFrames
60.0	60.0	5	27	m	60.0	271	542
Frame#	Time	RHip			RKnee			RAnkle			RBigToe			RSmallToe			RHeel			LHip			LKnee			LAnkle			LBigToe			LSmallToe			LHeel			Neck			Head			Nose			RShoulder			RElbow			RWrist			RThumb			RIndex			RPinky			LShoulder			LElbow			LWrist			LThumb			LIndex			LPinky			
		X1	Y1	Z1	X2	Y2	Z2	X3	Y3	Z3	X4	Y4	Z4	X5	Y5	Z5	X6	Y6	Z6	X7	Y7	Z7	X8	Y8	Z8	X9	Y9	Z9	X10	Y10	Z10	X11	Y11	Z11	X12	Y12	Z12	X13	Y13	Z13	X14	Y14	Z14	X15	Y15	Z15	X16	Y16	Z16	X17	Y17	Z17	X18	Y18	Z18	X19	Y19	Z19	X20	Y20	Z20	X21	Y21	Z21	X22	Y22	Z22	X23	Y23	Z23	X24	Y24	Z24	X25	Y25	Z25	X26	Y26	Z26	X27	Y27	Z27	
271	4.516666666666667	0.37550540440101965	0.16240304304021563	1.057124182072049	0.38635286854589684	0.27963906154451307	1.5466443243793768	0.38374867383169914	0.37527018040413235	1.972284684271085	0.347049575300332	0.18192972952959685	2.002548802594947	0.4192349580197096	0.2038782865179606	2.0035888519507825	0.35881373166179176	0.4732244450616701	2.0437698750285276	0.13942257017820392	0.1531321137319279	1.054405903137804	0.1449609507432473	0.24505114923903093	1.5354704730078417	0.15198565189081836	0.34188872879342774	1.9522010449933318	0.17659549816932832	0.12200809685329644	1.9835364991539468	0.11056771868231698	0.18754528368457524	1.97533626157407	0.17428602438701357	0.4588232858438697	2.0573657851169895	0.246244742664655	0.09965684005277137	0.3832220365534485	0.24886582612445085	0.07052279597727475	0.1378662384187446	0.23511527475757707	-0.0016125339753991878	0.2828519089393687	0.42129974719810503	0.07488111122828775	0.5078586974834497	0.5372145394716175	0.18828197878357159	0.7553857257076083	0.6116561698890147	0.2014447890728398	1.0054633598105285	0.5812423881721338	0.14378967017327346	1.1300679561293978	0.5993407551579273	0.15097318330597584	1.1420549498765569	0.6264206272493185	0.19429104487019763	1.1397589318519903	0.04516762786443562	0.11536421099092886	0.49490207364967104	-0.030652310250135307	0.24864984545087607	0.7643093224007025	-0.08140543665995906	0.2536244903215006	1.0036663768041831	0.0023266064430440916	0.2511186184589066	1.0907177853859462	-0.026809003260028195	0.21609154831781338	1.120219350941546	-0.05828120283637845	0.24166942391563273	1.1218854637691615
272	4.533333333333333	0.37570782334720476	0.16252628278701764	1.0568694681189559	0.38627840541796266	0.2554316478190954	1.532893395197803	0.3879029258883655	0.35977828039629844	1.9635495746029845	0.3470766014814528	0.1821499283508275	2.0025800102366964	0.4231570071433306	0.21561545487613237	2.0094496970055986	0.3550273543011047	0.46893059630428396	2.0450622749337826	0.13953038270732201	0.1531964358808159	1.0542011196993388	0.1450776576600409	0.24631865159692168	1.5320288920588492	0.15200181268150842	0.34240203923518175	1.952402949996776	0.17736725035663103	0.1245275298882976	1.9895682481065824	0.10613531241154638	0.19791268750975016	1.9857730002488643	0.17423449696921026	0.45941369945837573	2.057078017261511	0.24626286230918856	0.09965857233483918	0.38324416678701456	0.2488602306380211	0.07073000541467207	0.1378805118809209	0.23514064375258964	-0.0015649120196876965	0.2828784589572289	0.42134206353098386	0.07486874804085786	0.5078522346985977	0.5377211989730378	0.18639833018207555	0.7588872120940411	0.6114096066361692	0.2011019856991951	1.0054606634986512	0.570063911584218	0.11666324423003326	1.1206288437028893	0.5900207393313848	0.13837931847483956	1.139757163954668	0.6283980835142039	0.17800688260343728	1.1393182875564638	0.04517648332660898	0.11537133538520873	0.4948971281052012	-0.030728521892071627	0.24917481579453266	0.7641876561713907	-0.0761682027074471	0.24101014142319357	1.0005286902188728	0.0023598677493122497	0.2508965045988683	1.0905501629197372	-0.027087143936177765	0.2137238751964498	1.1162950097348248	-0.05306827639111997	0.22893399857567504	1.1181251902061016
273	4.55	0.3792250755579717	0.17327991688298033	1.0590443917382915	0.3893399127433662	0.2650739238841927	1.5317339991626528	0.38792178959601326	0.35986908212719454	1.9634510833891317	0.34709355862151237	0.1821992536197391	2.002785639207227	0.4231823504240295	0.21564370267563798	2.009467613532099	0.3586817117371783	0.473681147996806	2.0433246126337226	0.1395188195274662	0.15342034608712843	1.0542787297730125	0.143913882048344	0.24640518606797557	1.52311924678333	0.15114890551580362	0.34140349969452255	1.9428855287663338	0.16931691900255386	0.12287572189790046	1.98509511500715	0.10539527573651515	0.2003821466707851	1.982889491831649	0.1742478898015725	0.45924702600342043	2.05724794298547	0.2469626541841461	0.09787963164597425	0.3861441516477154	0.24885434209222793	0.07083456818484232	0.13790577938214607	0.23507879839078114	-0.0015444963748734043	0.2828944356228595	0.4214468702248654	0.0748179860927811	0.5078654937454113	0.5418828440139469	0.18795035165142132	0.7589307299105746	0.6072666953102956	0.19819621877466853	1.0085703482647719	0.5690142794541667	0.11510962564320369	1.1172262542179983	0.5891965906424768	0.14026162289699898	1.1361282676766202	0.6260834807476338	0.19125919141110784	1.1433250234786017	0.0451460972443222	0.11539417146699457	0.49494120381524287	-0.034700807672368675	0.24588966812881566	0.7640810819775908	-0.08175528947023862	0.25369030527611286	1.0034870031584837	-0.001708488457302673	0.24625525895603712	1.0934795851762746	-0.03356739952729084	0.20079893385477088	1.1171769873253157	-0.055008527004408975	0.2168714338832643	1.115883728808032
274	4.566666666666666	0.37924115517629275	0.17313846310018668	1.0588378755379306	0.38538142046225593	0.2535643642505732	1.5279785824353012	0.39219274364408035	0.39001508457442385	1.9779411705252161	0.34720033153446855	0.18237320191250558	2.002968201519922	0.42326632603014563	0.2159504354901345	2.0096010327272342	0.3620590637249815	0.4857146660540146	2.043490455279539	0.1425589524780631	0.16446975915924203	1.0562188396845789	0.14444053005692656	0.2448035062225617	1.5268227399931693	0.1553874455742099	0.35629777068810103	1.9546076466249738	0.1727748564244768	0.1374989853154416	1.9973594197462137	0.10590481004778862	0.19792575442443425	1.9859789941015016	0.17589595945225286	0.46016143921933417	2.065484464365627	0.24695643041975146	0.09798987350946628	0.3862356740831583	0.24895437543923568	0.07101935831235463	0.13801661735691684	0.23503225373775738	-0.0015033538244033301	0.28293965774693	0.4253476633318723	0.07651629777596491	0.5077458034769782	0.5419307564894514	0.18797227762144433	0.7587546440860252	0.6074018846343602	0.19777765205105854	1.008506671331571	0.564880930998114	0.11430376103477285	1.120236192238844	0.5895135356542178	0.13892496702296742	1.13958281747742	0.6273634669567157	0.19176626482352535	1.1508044009613565	0.045146030374851064	0.11532629696806773	0.49497639612910965	-0.046260115078950476	0.2447740850185916	0.7690844966474847	-0.08851946049986589	0.2519845445369482	1.0073372860775474	-0.005516107718374691	0.24015737771676315	1.0999696968026103	-0.04117666514554889	0.20192050520683413	1.1184393538486712	-0.06547771510600034	0.23970040071020318	1.1269526832187255
275	4.583333333333333	0.37568302610514814	0.18644777743051483	1.062510715433016	0.38146985250552373	0.26787613926624443	1.534129509254784	0.38799670306804535	0.3885947361298092	1.977390476723488	0.34714906732942735	0.18246354496446446	2.002958399259156	0.42314550903328213	0.21613095662118756	2.009518217247048	0.3623400747049511	0.4841517636103329	2.045917333849952	0.14249318328467286	0.1643317116924151	1.0562943976732235	0.1443198661236533	0.24329775399078205	1.5302260302885076	0.1510791194974829	0.3414439609290567	1.9430043325010988	0.1746200392291818	0.11262856260739618	1.9834134376954982	0.10594679193527906	0.19760340969366574	1.9858783178628787	0.17476686648797143	0.4575981618052068	2.060530142911169	0.24696029481313347	0.09794938294300853	0.3862324702292691	0.24892092435314125	0.07104697870857177	0.1379599084315722	0.23502917581376684	-0.0014783837919744942	0.2829336525176276	0.4255499916144684	0.07687318543192827	0.5078336808044552	0.5420558555996349	0.18792566110263154	0.7589118532234457	0.6100422987489489	0.17491977776358864	1.003540905236664	0.5744265544098632	0.12729698380338253	1.1261785527414594	0.5963815609603832	0.14324285084167399	1.1443631207575375	0.6267834108274432	0.1917907570112495	1.1434782526486027	0.04515543826223561	0.11508636571862468	0.49499310333356683	-0.04840426028314598	0.23156408763836384	0.7712722175967671	-0.09348681817940441	0.24984483048124909	1.0069355721956461	-0.025677454563255545	0.22752084533204966	1.1030464000466467	-0.04314285271389034	0.1881941349003959	1.1241452761160002	-0.07141736543777617	0.22403959822226807	1.1281182286091813
